<svg width="24" height="18" viewBox="0 0 24 18" fill="none" xmlns="http://www.w3.org/2000/svg">
<path d="M24 15.3V12.1ZM6.4 13.1L7.6 13.5C9 14 10.5 14.2 12 14.3V2H9L7 0C7 0 6 0.4 4.7 1.7C2.7 3.6 0.1 7.5 0 14.7C0 14.9 0.1 15.1 0.2 15.2C0.9 15.9 3.2 17.9 7.6 18C7.9 18 8.1 17.8 8.2 17.6L8.6 16.7C8.8 16.3 8.6 15.9 8.2 15.7L6.2 15C6.1 15 6 14.9 6 14.8V13.4C6 13.2 6.2 13.1 6.4 13.1ZM8.5 7C9.9 7 11 8.1 11 9.5C11 10.9 9.9 12 8.5 12C7.1 12 6 10.9 6 9.5C6 8.1 7.1 7 8.5 7Z" fill="white"/>
<path d="M0 12.1V15.3ZM18 13.4V14.8C18 14.9 17.9 15 17.8 15L15.8 15.7C15.4 15.9 15.2 16.3 15.4 16.7L15.8 17.6C15.9 17.8 16.1 18 16.4 18C20.8 17.9 23.1 15.9 23.8 15.2C23.9 15.1 24 14.9 24 14.7C23.9 7.5 21.3 3.6 19.3 1.7C18 0.4 17 0 17 0L15 2H12V14.3C13.5 14.3 15 14 16.4 13.5L17.6 13.1C17.8 13.1 18 13.2 18 13.4ZM18 9.5C18 10.9 16.9 12 15.5 12C14.1 12 13 10.9 13 9.5C13 8.1 14.1 7 15.5 7C16.9 7 18 8.1 18 9.5Z" fill="white"/>
</svg>
