<?xml version="1.0" encoding="utf-8"?>
<!-- Generator: Adobe Illustrator 24.1.2, SVG Export Plug-In . SVG Version: 6.00 Build 0)  -->
<svg version="1.1" id="Слой_1" xmlns="http://www.w3.org/2000/svg" xmlns:xlink="http://www.w3.org/1999/xlink" x="0px" y="0px"
	 width="56px" height="14px" viewBox="0 0 56 14" style="enable-background:new 0 0 56 14;" xml:space="preserve">
<style type="text/css">
	.st0{fill:#FFFFFF80;}
</style>
<path class="st0" d="M0.51,10.84C0.17,9.65,0,8.37,0,7s0.17-2.65,0.51-3.85C0.85,1.95,1.33,0.9,1.96,0H4.3
	C3.64,1.11,3.16,2.23,2.86,3.37C2.55,4.51,2.4,5.72,2.4,7c0,1.28,0.15,2.49,0.46,3.63c0.3,1.14,0.78,2.27,1.44,3.37H1.96
	C1.33,13.09,0.85,12.04,0.51,10.84z M54.04,14H51.7c0.66-1.11,1.14-2.23,1.44-3.37C53.45,9.49,53.6,8.28,53.6,7
	c0-1.28-0.15-2.49-0.46-3.63C52.84,2.23,52.36,1.11,51.7,0l2.34,0c0.63,0.9,1.11,1.95,1.45,3.15C55.83,4.35,56,5.63,56,7
	s-0.17,2.65-0.51,3.84C55.15,12.04,54.67,13.09,54.04,14z M8,7h2V5h5V3H9L8,4V7z M26,3h-7v7h7V3z M47,3h-7v7h7V3z M37,12h-8v2h8V12z
	"/>
</svg>
