<?xml version="1.0" encoding="utf-8"?>
<!-- Generator: Adobe Illustrator 24.1.2, SVG Export Plug-In . SVG Version: 6.00 Build 0)  -->
<svg version="1.1" id="Слой_1" xmlns="http://www.w3.org/2000/svg" xmlns:xlink="http://www.w3.org/1999/xlink" x="0px" y="0px"
	 width="34px" height="32px" viewBox="0 0 34 32" style="enable-background:new 0 0 34 32;" xml:space="preserve">
<style type="text/css">
	.st0{fill:url(#SVGID_1_);}
</style>
<linearGradient id="SVGID_1_" gradientUnits="userSpaceOnUse" x1="17" y1="31.16" x2="17" y2="0.84">
	<stop  offset="0" style="stop-color:#0C0C0C"/>
	<stop  offset="6.214674e-02" style="stop-color:#0F0F0F"/>
	<stop  offset="9.947575e-02" style="stop-color:#171717"/>
	<stop  offset="0.1126" style="stop-color:#1C1C1C"/>
	<stop  offset="0.1766" style="stop-color:#1F1F1F"/>
	<stop  offset="0.2256" style="stop-color:#282929"/>
	<stop  offset="0.2531" style="stop-color:#313232"/>
	<stop  offset="0.3645" style="stop-color:#363636"/>
	<stop  offset="0.4508" style="stop-color:#3E3E3E"/>
	<stop  offset="1" style="stop-color:#3D3D3E"/>
</linearGradient>
<path class="st0" d="M11.3,6.5L9.9,5.1C8.1,6.9,7,9.4,7,12.2c0,2.8,1.1,5.3,2.9,7.1l1.4-1.4C9.9,16.4,9,14.4,9,12.2
	C9,10,9.9,8,11.3,6.5z M7.1,2.3L5.7,0.8C2.8,3.7,1,7.7,1,12.2c0,4.4,1.8,8.4,4.7,11.3l1.4-1.4C4.6,19.5,3,16,3,12.2
	C3,8.3,4.6,4.8,7.1,2.3z M15,14.2v15c0,1.1,0.9,2,2,2v-17H15z M14.2,9.3c-0.7,0.7-1.2,1.7-1.2,2.8c0,1.5,0.8,2.8,2,3.5v-1.5h2v-6
	C15.9,8.2,14.9,8.6,14.2,9.3z M25,12.2c0,2.2-0.9,4.2-2.4,5.7l1.4,1.4c1.8-1.8,2.9-4.3,2.9-7.1c0-2.8-1.1-5.3-2.9-7.1l-1.4,1.4
	C24.1,8,25,10,25,12.2z M31,12.2c0,3.9-1.6,7.4-4.1,9.9l1.4,1.4c2.9-2.9,4.7-6.9,4.7-11.3c0-4.4-1.8-8.4-4.7-11.3l-1.4,1.4
	C29.4,4.8,31,8.3,31,12.2z M17,14.2v17c1.1,0,2-0.9,2-2v-15H17z M17,8.2v6h2v1.5c1.2-0.7,2-2,2-3.5c0-1.1-0.5-2.1-1.2-2.8
	C19.1,8.6,18.1,8.2,17,8.2z"/>
</svg>
