<?xml version="1.0" encoding="utf-8"?>
<!-- Generator: Adobe Illustrator 24.1.2, SVG Export Plug-In . SVG Version: 6.00 Build 0)  -->
<svg version="1.1" id="Слой_1" xmlns="http://www.w3.org/2000/svg" xmlns:xlink="http://www.w3.org/1999/xlink" x="0px" y="0px"
	 width="22px" height="22px" viewBox="0 0 22 22" style="enable-background:new 0 0 22 22;" xml:space="preserve">
<style type="text/css">
	.st0{fill:url(#SVGID_1_);}
</style>
<linearGradient id="SVGID_1_" gradientUnits="userSpaceOnUse" x1="11" y1="0" x2="11" y2="22">
	<stop  offset="0" style="stop-color:#FFFFFF"/>
	<stop  offset="0.2528" style="stop-color:#FEFCFC"/>
	<stop  offset="0.4049" style="stop-color:#FAF4F4"/>
	<stop  offset="0.5303" style="stop-color:#F3E6E6"/>
	<stop  offset="0.6413" style="stop-color:#EAD1D1"/>
	<stop  offset="0.7426" style="stop-color:#DEB7B7"/>
	<stop  offset="0.8371" style="stop-color:#CF9797"/>
	<stop  offset="0.9243" style="stop-color:#BE7171"/>
	<stop  offset="1" style="stop-color:#AC4A4A"/>
</linearGradient>
<path class="st0" d="M18.8,3.2C16.8,1.2,14,0,11,0S5.2,1.2,3.2,3.2S0,8,0,11c0,6.1,4.9,11,11,11s11-4.9,11-11
	C22,8,20.8,5.2,18.8,3.2z M13,16c0,1.1-0.9,2-2,2s-2-0.9-2-2v-3c0-1.1,0.9-2,2-2s2,0.9,2,2V16z M11,8C9.9,8,9,7.1,9,6
	c0-0.5,0.2-1,0.6-1.4C10,4.2,10.5,4,11,4s1,0.2,1.4,0.6C12.8,5,13,5.5,13,6C13,7.1,12.1,8,11,8z"/>
</svg>
