<?xml version="1.0" encoding="utf-8"?>
<!-- Generator: Adobe Illustrator 24.1.2, SVG Export Plug-In . SVG Version: 6.00 Build 0)  -->
<svg version="1.1" id="icon_x5F_play" xmlns="http://www.w3.org/2000/svg" xmlns:xlink="http://www.w3.org/1999/xlink" x="0px"
	 y="0px" viewBox="0 0 12 16" style="enable-background:new 0 0 12 16;" xml:space="preserve">
<style type="text/css">
	.st0{fill:#43649c;}
</style>
<g id="figure">
	<path class="st0" d="M1.5,14.5c-0.1,0-0.2,0-0.2-0.1C1.1,14.4,1,14.2,1,14V2c0-0.2,0.1-0.4,0.3-0.4c0.1,0,0.2-0.1,0.2-0.1
		c0.1,0,0.2,0,0.3,0.1l9,6C10.9,7.7,11,7.8,11,8s-0.1,0.3-0.2,0.4l-9,6C1.7,14.5,1.6,14.5,1.5,14.5z"/>
	<path class="st0" d="M1.5,2l9,6l-9,6V2 M1.5,1C1.3,1,1.2,1,1,1.1C0.7,1.3,0.5,1.6,0.5,2v12c0,0.4,0.2,0.7,0.5,0.9
		C1.2,15,1.3,15,1.5,15c0.2,0,0.4-0.1,0.6-0.2l9-6c0.3-0.2,0.4-0.5,0.4-0.8s-0.2-0.6-0.4-0.8l-9-6C1.9,1.1,1.7,1,1.5,1L1.5,1z"/>
</g>
</svg>
