<?xml version="1.0" encoding="utf-8"?>
<!-- Generator: Adobe Illustrator 24.1.2, SVG Export Plug-In . SVG Version: 6.00 Build 0)  -->
<svg version="1.1" id="Слой_1" xmlns="http://www.w3.org/2000/svg" xmlns:xlink="http://www.w3.org/1999/xlink" x="0px" y="0px"
	 width="24px" height="26px" viewBox="0 0 24 26" style="enable-background:new 0 0 24 26;" xml:space="preserve">
<style type="text/css">
	.st0{fill:url(#SVGID_1_);}
</style>
<linearGradient id="SVGID_1_" gradientUnits="userSpaceOnUse" x1="12" y1="-2.701199e-10" x2="12" y2="26">
	<stop  offset="0" style="stop-color:#3E3E3D"/>
	<stop  offset="0.5492" style="stop-color:#3D3D3E"/>
	<stop  offset="0.7469" style="stop-color:#2E2E2E"/>
	<stop  offset="0.8874" style="stop-color:#1C1C1C"/>
	<stop  offset="1" style="stop-color:#131314"/>
</linearGradient>
<path class="st0" d="M6,18c-3.3,0-6,2.7-6,6v2h12v-8H6z M7.8,1.8C6.7,2.8,6,4.3,6,6s0.7,3.2,1.8,4.2C8.8,11.3,10.3,12,12,12V0
	C10.3,0,8.8,0.7,7.8,1.8z M12,18v8h12v-2c0-3.3-2.7-6-6-6H12z M12,0v12c1.7,0,3.2-0.7,4.2-1.8C17.3,9.2,18,7.7,18,6
	s-0.7-3.2-1.8-4.2C15.2,0.7,13.7,0,12,0z"/>
</svg>
