<?xml version="1.0" encoding="utf-8"?>
<!-- Generator: Adobe Illustrator 24.1.2, SVG Export Plug-In . SVG Version: 6.00 Build 0)  -->
<svg version="1.1" id="Слой_1" xmlns="http://www.w3.org/2000/svg" xmlns:xlink="http://www.w3.org/1999/xlink" x="0px" y="0px"
	 width="26px" height="26px" viewBox="0 0 26 26" style="enable-background:new 0 0 26 26;" xml:space="preserve">
<style type="text/css">
	.st0{fill:url(#SVGID_1_);}
</style>
<linearGradient id="SVGID_1_" gradientUnits="userSpaceOnUse" x1="13" y1="0" x2="13" y2="26">
	<stop  offset="0" style="stop-color:#404040"/>
	<stop  offset="0.5492" style="stop-color:#414140"/>
	<stop  offset="0.7469" style="stop-color:#393939"/>
	<stop  offset="0.8874" style="stop-color:#242524"/>
	<stop  offset="1" style="stop-color:#181819"/>
</linearGradient>
<path class="st0" d="M13,0C5.8,0,0,5.8,0,13s5.8,13,13,13s13-5.8,13-13S20.2,0,13,0z M13,24C6.9,24,2,19.1,2,13S6.9,2,13,2
	s11,4.9,11,11S19.1,24,13,24z M20,13c0.1,4.1-3.4,6.8-7,7c-1.8,0.1-3.6-0.5-5-2l5-5V6C16.9,6,20,9.1,20,13z"/>
</svg>
