<?xml version="1.0" encoding="utf-8"?>
<!-- Generator: Adobe Illustrator 25.2.3, SVG Export Plug-In . SVG Version: 6.00 Build 0)  -->
<svg version="1.1" id="Logo_x27_s__x2014__NF_x2C__FM_x2C__VH"
	 xmlns="http://www.w3.org/2000/svg" xmlns:xlink="http://www.w3.org/1999/xlink" x="0px" y="0px" viewBox="0 0 200 200"
	 style="enable-background:new 0 0 200 200;" xml:space="preserve">
<style type="text/css">
	.st0{fill:#0B0A09;}
	.st1{fill:url(#SVGID_1_);}
	.st2{fill:#4775C1;}
</style>
<g id="Logo_NF_1_">
	<g id="Обводка_2_X_Свечение_1_">
		
			<image style="overflow:visible;opacity:0.9;" width="149" height="123" xlink:href="FB358517.png"  transform="matrix(1 0 0 1 26 39)">
		</image>
		<g>
			<path class="st0" d="M83.2,79l-1.5,4l6.4,10l5.1-14h7l-2.5,7h-4l2.5,4l-6.9,19l-4.5-7l0.7-2l-6.4-10l-6.9,19l-4.5-7l8.4-23H83.2z
				 M107.2,79l-8.4,23l4.5,7l4.4-12h12l2.5-7h-12l-2.5-4h20l2.5-7H107.2z"/>
			<linearGradient id="SVGID_1_" gradientUnits="userSpaceOnUse" x1="100.5998" y1="131.493" x2="100.5998" y2="69">
				<stop  offset="0" style="stop-color:#060808"/>
				<stop  offset="1" style="stop-color:#1E304D"/>
			</linearGradient>
			<path class="st1" d="M130.2,79l-2.5,7h-20l2.5,4h12l-2.5,7h-12l-4.4,12l-4.5-7l8.4-23H130.2 M100.2,79l-2.5,7h-4l2.5,4l-6.9,19
				l-4.5-7l0.7-2l-6.4-10l-6.9,19l-4.5-7l8.4-23h7l-1.5,4l6.4,10l5.1-14H100.2 M144.5,69h-14.3h-15.7h-14.3h-2.7H83.2h-7h-7
				l-2.4,6.6l-8.4,23l-1.7,4.6l2.6,4.2l4.5,7l10.9,17.1l6.2-17l10.8,17l5.1-14l8.9,14l6.9-19.1l2-5.4h5h7l2.4-6.6l1.6-4.4h4l2.4-6.6
				l2.5-7L144.5,69L144.5,69z"/>
		</g>
	</g>
	<g id="Основа_X_Обводка_1_1_">
		<g id="_x3C_Контур_x3E__1_">
			<polygon class="st2" points="82,102.3 82.8,100.3 79.8,95.6 72.9,114.6 65,102.3 74.4,76.5 86.8,76.5 84.5,82.7 87.5,87.4 
				91.4,76.5 103.8,76.5 99.4,88.5 98.2,88.5 99,89.7 89.9,114.6 			"/>
			<path class="st0" d="M100.2,79l-2.5,7h-4l2.5,4l-6.9,19l-4.5-7l0.7-2l-6.4-10l-6.9,19l-4.5-7l8.4-23h7l-1.5,4l6.4,10l5.1-14
				H100.2 M107.3,74h-7.1h-7h-2.9h-7.1h-7h-3.5l-1.2,3.3l-8.4,23l-0.8,2.3l1.3,2.1l4.5,7l5.4,8.6l3.5-9.5l2.7-7.5l0.9,1.4l4.5,7
				l5.4,8.6l3.5-9.5l6.9-19l0.8-2.3l0.6-1.7l2.5-7L107.3,74L107.3,74z"/>
		</g>
		<g id="_x3C_Контур_x3E_">
			<polygon class="st2" points="96,102.3 105.4,76.5 133.8,76.5 129.4,88.5 125.4,88.5 121.4,99.5 109.4,99.5 103.9,114.6 			"/>
			<path class="st0" d="M130.2,79l-2.5,7h-20l2.5,4h12l-2.5,7h-12l-4.4,12l-4.5-7l8.4-23H130.2 M137.3,74h-7.1h-23h-3.5l-1.2,3.3
				l-8.4,23l-0.8,2.3l1.3,2.1l4.5,7l5.4,8.6l3.5-9.5l3.2-8.7h8.5h3.5l1.2-3.3l2.5-7l0.3-0.7h0.5h3.5l1.2-3.3l2.5-7L137.3,74
				L137.3,74z"/>
		</g>
	</g>
</g>
</svg>
