<?xml version="1.0" encoding="utf-8"?>
<!-- Generator: Adobe Illustrator 24.1.2, SVG Export Plug-In . SVG Version: 6.00 Build 0)  -->
<svg version="1.1" id="Слой_1" xmlns="http://www.w3.org/2000/svg" xmlns:xlink="http://www.w3.org/1999/xlink" x="0px" y="0px"
	 width="22px" height="21px" viewBox="0 0 22 21" style="enable-background:new 0 0 22 21;" xml:space="preserve">
<style type="text/css">
	.st0{fill:#CDB547;}
</style>
<path class="st0" d="M11,1v15c-0.1,0-0.2,0-0.3,0.1l-5.9,3.7c-0.5,0.4-1.2-0.2-1-0.8l2.1-5.6c0.1-0.2,0-0.5-0.2-0.7L1.2,8.2
	C0.8,7.8,1.1,7,1.7,7h5.8c0.3,0,0.6-0.2,0.7-0.4l2.2-5.1C10.5,1.2,10.7,1,11,1z M11,1v15c0.1,0,0.2,0,0.3,0.1l5.9,3.7
	c0.5,0.4,1.2-0.2,1-0.8l-2.1-5.6c-0.1-0.2,0-0.5,0.2-0.7l4.5-4.5C21.2,7.8,20.9,7,20.3,7h-5.8c-0.3,0-0.6-0.2-0.7-0.4l-2.2-5.1
	C11.5,1.2,11.3,1,11,1z"/>
</svg>
