<?xml version="1.0" encoding="utf-8"?>
<!-- Generator: Adobe Illustrator 25.2.3, SVG Export Plug-In . SVG Version: 6.00 Build 0)  -->
<svg version="1.1" id="Logo_x27_s__x2014__NF_x2C__FM_x2C__VH"
	 xmlns="http://www.w3.org/2000/svg" xmlns:xlink="http://www.w3.org/1999/xlink" x="0px" y="0px" viewBox="0 0 200 200"
	 style="enable-background:new 0 0 200 200;" xml:space="preserve">
<style type="text/css">
	.st0{fill:#0B0A09;}
	.st1{fill:url(#SVGID_1_);}
	.st2{fill:url(#SVGID_2_);}
	.st3{fill:#989BA0;}
</style>
<g id="Logo_VH">
	<g id="Обводка_2_X_Свечение_3_">
		<g id="Обводка_2_X_Свечение_2_">
			
				<image style="overflow:visible;opacity:0.9;" width="148" height="123" xlink:href="7B3B39AB.png"  transform="matrix(1 0 0 1 27 39)">
			</image>
			<g>
				<path class="st0" d="M130.5,79h-7l-4,11h-10l-2.6-4h4l2.6-7h-7l-8.4,23l4.4,7l4.4-12h10l-1.8,5l4.4,7l6.9-19l-2.5-4h4L130.5,79z
					 M99.5,79h-7l-9.1,25h-4l-3.2-5l3.3-9l-2.6-4h4l2.6-7h-7l-8.4,23l4.4,7h16l6.9-19l-2.6-4h4L99.5,79z"/>
				<linearGradient id="SVGID_1_" gradientUnits="userSpaceOnUse" x1="100.8772" y1="131.4949" x2="100.8772" y2="69">
					<stop  offset="0" style="stop-color:#0D0E0E"/>
					<stop  offset="1" style="stop-color:#3C3D40"/>
				</linearGradient>
				<path class="st1" d="M130.5,79l-2.6,7h-4l2.5,4l-6.9,19l-4.4-7l1.8-5h-10l-4.4,12l-4.4-7l8.4-23h7l-2.6,7h-4l2.6,4h10l4-11
					H130.5 M99.5,79l-2.6,7h-4l2.6,4l-6.9,19h-16l-4.4-7l8.4-23h7l-2.6,7h-4l2.6,4l-3.3,9l3.2,5h4l9.1-25H99.5 M144.7,69h-14.3h-2.7
					h-14H99.5h-1.7H83.5h-7h-7l-2.4,6.6l-8.4,23l-1.7,4.6l2.6,4.2l4.4,7L67,119h5.5h16h7l0.5-1.5l8.9,14l6.2-17l10.8,17l6.9-19.1
					l6.9-19l1.7-4.6l0,0l2.3-6.4L144.7,69L144.7,69z"/>
			</g>
		</g>
		<linearGradient id="SVGID_2_" gradientUnits="userSpaceOnUse" x1="96.4873" y1="119.0268" x2="96.5227" y2="117.0032">
			<stop  offset="0" style="stop-color:#161718"/>
			<stop  offset="1" style="stop-color:#181919"/>
		</linearGradient>
		<path class="st2" d="M95,117v2h3.1v-2H95z"/>
	</g>
	<g id="Основа_X_Обводка_1_2_">
		<g>
			<polygon class="st3" points="71.2,111.5 65.3,102.3 74.7,76.5 87,76.5 82.7,88.5 81.5,88.5 82.2,89.7 79,98.7 80.7,101.5 
				81.6,101.5 90.7,76.5 103,76.5 98.7,88.5 97.5,88.5 98.2,89.7 90.3,111.5 			"/>
			<path class="st0" d="M99.5,79l-2.5,7h-4l2.5,4l-6.9,19h-16l-4.5-7l8.4-23h7l-2.5,7h-4l2.5,4l-3.3,9l3.2,5h4l9.1-25H99.5
				 M106.6,74h-7.1h-7h-1.9h-7.1h-7H73l-1.2,3.3l-8.4,23l-0.8,2.3l1.3,2.1l4.5,7l1.5,2.3h2.7h16H92l1.2-3.3l6.9-19l0.8-2.3l0.6-1.7
				l2.5-7L106.6,74L106.6,74z"/>
		</g>
		<g>
			<polygon class="st3" points="112.3,102.3 113.3,99.5 108.7,99.5 103.2,114.6 95.3,102.3 104.7,76.5 117,76.5 113,87.5 
				117.7,87.5 121.7,76.5 134,76.5 129.7,88.5 128.5,88.5 129.2,89.7 120.2,114.6 			"/>
			<path class="st0" d="M130.5,79l-2.5,7h-4l2.5,4l-6.9,19l-4.5-7l1.8-5h-10l-4.4,12l-4.5-7l8.4-23h7l-2.5,7h-4l2.5,4h10l4-11H130.5
				 M137.6,74h-7.1h-7h-2.9h-7.1h-7H103l-1.2,3.3l-8.4,23l-0.8,2.3l1.3,2.1l4.5,7l5.4,8.6l3.5-9.5l2.7-7.5l0.9,1.4l4.5,7l5.4,8.6
				l3.5-9.5l6.9-19l0.8-2.3v0l0.6-1.7l2.5-7L137.6,74L137.6,74z"/>
		</g>
	</g>
</g>
</svg>
