<?xml version="1.0" encoding="utf-8"?>
<!-- Generator: Adobe Illustrator 24.1.2, SVG Export Plug-In . SVG Version: 6.00 Build 0)  -->
<svg version="1.1" id="Слой_1" xmlns="http://www.w3.org/2000/svg" xmlns:xlink="http://www.w3.org/1999/xlink" x="0px" y="0px"
	 width="52px" height="14px" viewBox="0 0 52 14" style="enable-background:new 0 0 52 14;" xml:space="preserve">
<style type="text/css">
	.st0{fill:#CC2F3D;}
</style>
<path class="st0" d="M0.51,10.84C0.17,9.65,0,8.37,0,7s0.17-2.65,0.51-3.85C0.85,1.95,1.33,0.9,1.96,0H4.3
	C3.64,1.11,3.16,2.23,2.86,3.37C2.55,4.51,2.4,5.72,2.4,7c0,1.28,0.15,2.49,0.46,3.63c0.3,1.14,0.78,2.27,1.44,3.37H1.96
	C1.33,13.09,0.85,12.04,0.51,10.84z M50.04,14H47.7c0.66-1.11,1.14-2.23,1.44-3.37C49.45,9.49,49.6,8.28,49.6,7
	c0-1.28-0.15-2.49-0.46-3.63C48.84,2.23,48.36,1.11,47.7,0l2.34,0c0.63,0.9,1.11,1.95,1.45,3.15C51.83,4.35,52,5.63,52,7
	s-0.17,2.65-0.51,3.84C51.15,12.04,50.67,13.09,50.04,14z M30,12h-8v2h8V12z M11,0L9,2l3,3L9,8l2,2l3-3l3,3l2-2l-3-3l3-3l-2-2l-3,3
	L11,0z M35,0l-2,2l3,3l-3,3l2,2l3-3l3,3l2-2l-3-3l3-3l-2-2l-3,3L35,0z"/>
</svg>
