<?xml version="1.0" encoding="utf-8"?>
<!-- Generator: Adobe Illustrator 24.1.2, SVG Export Plug-In . SVG Version: 6.00 Build 0)  -->
<svg version="1.1" id="Слой_1" xmlns="http://www.w3.org/2000/svg" xmlns:xlink="http://www.w3.org/1999/xlink" x="0px" y="0px"
	 width="4px" height="16px" viewBox="0 0 4 16" style="enable-background:new 0 0 4 16;" xml:space="preserve">
<style type="text/css">
	.st0{fill:#CDB547;}
</style>
<path class="st0" d="M0.59,12.59C0.22,12.95,0,13.45,0,14s0.22,1.05,0.59,1.41C0.95,15.78,1.45,16,2,16v-4
	C1.45,12,0.95,12.22,0.59,12.59z M0,2v5c0,1.1,0.9,2,2,2V0C0.9,0,0,0.9,0,2z M2,12v4c0.55,0,1.05-0.22,1.41-0.59
	C3.78,15.05,4,14.55,4,14s-0.22-1.05-0.59-1.41C3.05,12.22,2.55,12,2,12z M2,0v9c1.1,0,2-0.9,2-2V2C4,0.9,3.1,0,2,0z"/>
</svg>
