<?xml version="1.0" encoding="utf-8"?>
<!-- Generator: Adobe Illustrator 24.1.2, SVG Export Plug-In . SVG Version: 6.00 Build 0)  -->
<svg version="1.1" id="Слой_1" xmlns="http://www.w3.org/2000/svg" xmlns:xlink="http://www.w3.org/1999/xlink" x="0px" y="0px"
	 width="20px" height="6px" viewBox="0 0 20 6" style="enable-background:new 0 0 20 6;" xml:space="preserve">
<style type="text/css">
	.st0{fill:#FFFFFF;}
</style>
<path class="st0" d="M14.02,3c0,0.01,0,0.01,0,0.02c0,0.83,0.34,1.58,0.88,2.12c0.54,0.54,1.29,0.88,2.12,0.88
	c0.83,0,1.58-0.34,2.12-0.88c0.54-0.54,0.88-1.29,0.88-2.12c0-0.01,0-0.01,0-0.02H14.02z M0.02,3c0,0.01,0,0.01,0,0.02
	c0,1.66,1.34,3,3,3c0.83,0,1.58-0.34,2.12-0.88C5.68,4.6,6.02,3.85,6.02,3.02c0-0.01,0-0.01,0-0.02H0.02z M20.02,3.02
	c0-0.01,0-0.01,0-0.02c0-0.83-0.34-1.58-0.88-2.12C18.6,0.34,17.85,0,17.02,0c-0.83,0-1.58,0.34-2.12,0.88
	C14.36,1.42,14.02,2.17,14.02,3c0,0.01,0,0.01,0,0.02H20.02z M6.02,3.02c0-0.01,0-0.01,0-0.02c0-0.83-0.34-1.58-0.88-2.12
	C4.6,0.34,3.85,0,3.02,0c-1.66,0-3,1.34-3,3c0,0.01,0,0.01,0,0.02H6.02z"/>
</svg>
