<?xml version="1.0" encoding="utf-8"?>
<!-- Generator: Adobe Illustrator 24.1.2, SVG Export Plug-In . SVG Version: 6.00 Build 0)  -->
<svg version="1.1" id="Слой_1" xmlns="http://www.w3.org/2000/svg" xmlns:xlink="http://www.w3.org/1999/xlink" x="0px" y="0px"
	 width="14px" height="18px" viewBox="0 0 14 18" style="enable-background:new 0 0 14 18;" xml:space="preserve">
<style type="text/css">
	.st0{fill:#FFFFFFdd;}
</style>
<path class="st0" d="M3,12c-1.66,0-3,1.34-3,3v3h7v-6H3z M4.17,1.17C3.45,1.9,3,2.9,3,4c0,2.21,1.79,4,4,4V0
	C5.9,0,4.9,0.45,4.17,1.17z M7,12v6h7v-3c0-1.66-1.34-3-3-3H7z M7,0v8c2.21,0,4-1.79,4-4c0-1.1-0.45-2.1-1.17-2.83
	C9.1,0.45,8.1,0,7,0z"/>
</svg>
