<?xml version="1.0" encoding="utf-8"?>
<!-- Generator: Adobe Illustrator 24.1.2, SVG Export Plug-In . SVG Version: 6.00 Build 0)  -->
<svg version="1.1" id="Слой_1" xmlns="http://www.w3.org/2000/svg" xmlns:xlink="http://www.w3.org/1999/xlink" x="0px" y="0px"
	 width="14px" height="18px" viewBox="0 0 14 18" style="enable-background:new 0 0 14 18;" xml:space="preserve">
<style type="text/css">
	.st0{fill:#FFFFFFdd;}
</style>
<path class="st0" d="M12,7V5c0-2.76-2.24-5-5-5S2,2.24,2,5v2C0.9,7,0,7.9,0,9v7c0,1.1,0.9,2,2,2h5h5c1.1,0,2-0.9,2-2V9
	C14,7.9,13.1,7,12,7z M8,13.73V15H7H6v-1.27C5.4,13.38,5,12.74,5,12c0-0.55,0.22-1.05,0.59-1.41C5.95,10.22,6.45,10,7,10
	s1.05,0.22,1.41,0.59C8.78,10.95,9,11.45,9,12C9,12.74,8.6,13.38,8,13.73z M10,7H7H4V5c0-1.66,1.34-3,3-3s3,1.34,3,3V7z"/>
</svg>
