<?xml version="1.0" encoding="utf-8"?>
<!-- Generator: Adobe Illustrator 24.1.2, SVG Export Plug-In . SVG Version: 6.00 Build 0)  -->
<svg version="1.1" id="Слой_1" xmlns="http://www.w3.org/2000/svg" xmlns:xlink="http://www.w3.org/1999/xlink" x="0px" y="0px"
	 width="26px" height="27px" viewBox="0 0 26 27" style="enable-background:new 0 0 26 27;" xml:space="preserve">
<path style="fill:#FFFFFF;" d="M25.9,11.1C24.9,4.8,19.5,0,13,0S1.1,4.8,0.1,11.1C0,11.7,0,12.3,0,13v1v1.6c0,0.8,0.2,1.6,0.6,2.2c0.7,1.4,2.2,2.3,3.9,2.3
	c0.2,0,0.4,0,0.6,0C7.3,19.8,9,17.9,9,15.6c0-1.3-0.5-2.4-1.3-3.2c-0.8-0.8-1.9-1.3-3.2-1.3H3.2C4.1,6.5,8.1,3,13,3s8.9,3.5,9.8,8.1
	h-1.3c-1.3,0-2.4,0.5-3.2,1.3c-0.8,0.8-1.3,1.9-1.3,3.2c0,2.3,1.7,4.2,3.9,4.5c0.2,0,0.4,0,0.6,0c0.1,0,0.3,0,0.4,0
	c-0.9,1.7-2.5,3-4.3,3.6c-0.3,0.1-0.6,0.4-0.6,0.8V26c0,0.5,0.5,0.9,1,0.8c4.6-1.3,8-5.5,8-10.6v-0.6v-0.4V14v-1
	C26,12.3,26,11.7,25.9,11.1z"/>
</svg>
