<?xml version="1.0" encoding="utf-8"?>
<!-- Generator: Adobe Illustrator 24.1.2, SVG Export Plug-In . SVG Version: 6.00 Build 0)  -->
<svg version="1.1" id="Слой_1" xmlns="http://www.w3.org/2000/svg" xmlns:xlink="http://www.w3.org/1999/xlink" x="0px" y="0px"
	 width="26px" height="24px" viewBox="0 0 26 24" style="enable-background:new 0 0 26 24;" xml:space="preserve">
<style type="text/css">
	.st0{fill:#FFFFFF;}
</style>
<path class="st0" d="M21,0H5C2.2,0,0,2.2,0,5v10c0,2.8,2.2,5,5,5h7v4h2l4-4h3c2.8,0,5-2.2,5-5V5C26,2.2,23.8,0,21,0z M19.4,11.4
	C19,11.8,18.5,12,18,12H8c-1.1,0-2-0.9-2-2c0-0.5,0.2-1,0.6-1.4C7,8.2,7.5,8,8,8h10c1.1,0,2,0.9,2,2C20,10.5,19.8,11,19.4,11.4z"/>
</svg>
