<?xml version="1.0" encoding="utf-8"?>
<!-- Generator: Adobe Illustrator 24.1.2, SVG Export Plug-In . SVG Version: 6.00 Build 0)  -->
<svg version="1.1" id="Слой_1" xmlns="http://www.w3.org/2000/svg" xmlns:xlink="http://www.w3.org/1999/xlink" x="0px" y="0px"
	 width="66px" height="48px" viewBox="0 0 66 48" style="enable-background:new 0 0 66 48;" xml:space="preserve">
<style type="text/css">
	.st0{fill:url(#SVGID_1_);}
</style>
<linearGradient id="SVGID_1_" gradientUnits="userSpaceOnUse" x1="33.0004" y1="48" x2="33.0004" y2="-9.094947e-13">
	<stop  offset="0" style="stop-color:#BABDBF"/>
	<stop  offset="1" style="stop-color:#FFFFFF"/>
</linearGradient>
<path class="st0" d="M9.5,0h-4C4.67,0,4,0.67,4,1.5S4.67,3,5.5,3h4C10.33,3,11,2.33,11,1.5S10.33,0,9.5,0z M63.51,4.29
	C60.87,1.43,56.28,0,49.74,0H16.5C15.67,0,15,0.67,15,1.5S15.67,3,16.5,3h21C38.33,3,39,3.67,39,4.5S38.33,6,37.5,6h-15
	C21.67,6,21,6.67,21,7.5S21.67,9,22.5,9h6c0.83,0,1.5,0.67,1.5,1.5S29.33,12,28.5,12h-9c-0.83,0-1.5,0.67-1.5,1.5s0.67,1.5,1.5,1.5
	h4.12l-2.49,9H61.2c1.92-2.33,3.26-4.9,4.03-7.7C66.67,11.11,66.09,7.11,63.51,4.29z M50.32,16.53c-0.5,1.82-1.49,3.28-2.96,4.39
	c-1.5,1.11-3.26,1.67-5.3,1.67h-6l3.36-12.18h6.04c1.94,0,3.36,0.58,4.25,1.73C50.61,13.27,50.82,14.74,50.32,16.53z M11.5,24h-1
	C9.67,24,9,24.67,9,25.5S9.67,27,10.5,27h1c0.83,0,1.5-0.67,1.5-1.5S12.33,24,11.5,24z M2.5,45h-1C0.67,45,0,45.67,0,46.5
	S0.67,48,1.5,48h1C3.33,48,4,47.33,4,46.5S3.33,45,2.5,45z M18.5,24c-0.83,0-1.5,0.67-1.5,1.5s0.67,1.5,1.5,1.5h10
	c0.83,0,1.5,0.67,1.5,1.5S29.33,30,28.5,30h-12c-0.83,0-1.5,0.67-1.5,1.5s0.67,1.5,1.5,1.5h3c0.83,0,1.5,0.67,1.5,1.5
	S20.33,36,19.5,36h-5c-0.83,0-1.5,0.67-1.5,1.5s0.67,1.5,1.5,1.5h2.49l-1.66,6H9.5C8.67,45,8,45.67,8,46.5S8.67,48,9.5,48h19.54
	l4.45-16.1h4.76L41.63,48h16.25l-4.37-18.2c2.84-1.17,5.33-3.01,7.46-5.52c0.08-0.09,0.15-0.18,0.23-0.28H18.5z"/>
</svg>
