<?xml version="1.0" encoding="utf-8"?>
<!-- Generator: Adobe Illustrator 24.1.2, SVG Export Plug-In . SVG Version: 6.00 Build 0)  -->
<svg version="1.1" id="Слой_1" xmlns="http://www.w3.org/2000/svg" xmlns:xlink="http://www.w3.org/1999/xlink" x="0px" y="0px"
	 width="24px" height="18px" viewBox="0 0 24 18" style="enable-background:new 0 0 24 18;" xml:space="preserve">
<style type="text/css">
	.st0{fill:#FFFFFF;}
</style>
<path class="st0" d="M24,15.3v-3.2 M6.4,13.1l1.2,0.4C9,14,10.5,14.2,12,14.3V2H9L7,0c0,0-1,0.4-2.3,1.7c-2,1.9-4.6,5.8-4.7,13
	c0,0.2,0.1,0.4,0.2,0.5c0.7,0.7,3,2.7,7.4,2.8c0.3,0,0.5-0.2,0.6-0.4l0.4-0.9c0.2-0.4,0-0.8-0.4-1l-2-0.7C6.1,15,6,14.9,6,14.8v-1.4
	C6,13.2,6.2,13.1,6.4,13.1z M8.5,7C9.9,7,11,8.1,11,9.5S9.9,12,8.5,12S6,10.9,6,9.5S7.1,7,8.5,7z"/>
<path class="st0" d="M0,12.1v3.2 M18,13.4v1.4c0,0.1-0.1,0.2-0.2,0.2l-2,0.7c-0.4,0.2-0.6,0.6-0.4,1l0.4,0.9
	c0.1,0.2,0.3,0.4,0.6,0.4c4.4-0.1,6.7-2.1,7.4-2.8c0.1-0.1,0.2-0.3,0.2-0.5c-0.1-7.2-2.7-11.1-4.7-13C18,0.4,17,0,17,0l-2,2h-3v12.3
	c1.5,0,3-0.3,4.4-0.8l1.2-0.4C17.8,13.1,18,13.2,18,13.4z M18,9.5c0,1.4-1.1,2.5-2.5,2.5S13,10.9,13,9.5S14.1,7,15.5,7
	S18,8.1,18,9.5z"/>
</svg>
