<?xml version="1.0" encoding="utf-8"?>
<!-- Generator: Adobe Illustrator 25.2.3, SVG Export Plug-In . SVG Version: 6.00 Build 0)  -->
<svg version="1.1" id="Слой_1" xmlns="http://www.w3.org/2000/svg" xmlns:xlink="http://www.w3.org/1999/xlink" x="0px" y="0px"
	 viewBox="0 0 18 18" style="enable-background:new 0 0 18 18;" xml:space="preserve">
<style type="text/css">
	.st0{fill:#218fc6;}
</style>
<g>
	<path class="st0" d="M11,16.5c-0.2,0-0.4-0.1-0.4-0.3l-2.9-5.9L1.8,7.4C1.6,7.4,1.5,7.2,1.5,7c0-0.2,0.1-0.4,0.3-0.4l14-5
		c0.1,0,0.1,0,0.2,0c0.1,0,0.3,0.1,0.4,0.1c0.1,0.1,0.2,0.3,0.1,0.5l-5,14C11.4,16.4,11.2,16.5,11,16.5C11,16.5,11,16.5,11,16.5z"/>
	<path class="st0" d="M16,2l-5,14l-3-6L2,7L16,2 M16,1c-0.1,0-0.2,0-0.3,0.1l-14,5C1.3,6.2,1,6.5,1,6.9c0,0.4,0.2,0.8,0.6,1l5.7,2.9
		l2.9,5.7c0.2,0.3,0.5,0.6,0.9,0.6c0,0,0,0,0.1,0c0.4,0,0.7-0.3,0.9-0.7l5-14c0.1-0.4,0-0.8-0.2-1C16.5,1.1,16.3,1,16,1L16,1z"/>
</g>
</svg>
