<?xml version="1.0" encoding="utf-8"?>
<!-- Generator: Adobe Illustrator 24.1.2, SVG Export Plug-In . SVG Version: 6.00 Build 0)  -->
<svg version="1.1" id="Слой_1" xmlns="http://www.w3.org/2000/svg" xmlns:xlink="http://www.w3.org/1999/xlink" x="0px" y="0px"
	 width="50px" height="13px" viewBox="0 0 50 13" style="enable-background:new 0 0 50 13;" xml:space="preserve">
<style type="text/css">
	.st0{fill:#FFFFFF;}
</style>
<path class="st0" d="M7,0h3v13H3l-3-3V0h3v8l2,2h2V0z M14,12l1,1h3v-3h-4V12z M22,1v2h3v7h-3v2l1,1h5V0h-5L22,1z M32,12l1,1h3v-3h-4
	V12z M50,0v13h-7l-3-3V0H50z M47,3h-4v6l1,1h3V3z"/>
</svg>
