<?xml version="1.0" encoding="utf-8"?>
<!-- Generator: Adobe Illustrator 24.1.2, SVG Export Plug-In . SVG Version: 6.00 Build 0)  -->
<svg version="1.1" id="Слой_1" xmlns="http://www.w3.org/2000/svg" xmlns:xlink="http://www.w3.org/1999/xlink" x="0px" y="0px"
	 width="20px" height="20px" viewBox="0 0 20 20" style="enable-background:new 0 0 20 20;" xml:space="preserve">
<style type="text/css">
	.st0{fill:#FFFFFF;}
</style>
<path class="st0" d="M17,7V3h-4l-3-3L7,3H3v4l-3,3l3,3v4h4l3,3l3-3h4v-4l3-3L17,7z M10,13c-1.7,0-3-1.3-3-3c0-0.8,0.3-1.6,0.9-2.1
	C8.5,7.4,9.2,7,10,7s1.5,0.4,2.1,0.9C12.7,8.4,13,9.2,13,10C13,11.7,11.7,13,10,13z"/>
</svg>
