<?xml version="1.0" encoding="utf-8"?>
<!-- Generator: Adobe Illustrator 24.1.2, SVG Export Plug-In . SVG Version: 6.00 Build 0)  -->
<svg version="1.1" id="Слой_1" xmlns="http://www.w3.org/2000/svg" xmlns:xlink="http://www.w3.org/1999/xlink" x="0px" y="0px"
	 width="26px" height="26px" viewBox="0 0 26 26" style="enable-background:new 0 0 26 26;" xml:space="preserve">
<style type="text/css">
	.st0{fill:url(#SVGID_1_);}
</style>
<linearGradient id="SVGID_1_" gradientUnits="userSpaceOnUse" x1="13" y1="26" x2="13" y2="-2.928573e-10">
	<stop  offset="0" style="stop-color:#282927"/>
	<stop  offset="0.1648" style="stop-color:#4C4C4C"/>
	<stop  offset="0.3547" style="stop-color:#7C7D7C"/>
	<stop  offset="1" style="stop-color:#FAFAF9"/>
</linearGradient>
<path class="st0" d="M11.6,16.6C11.2,17,11,17.5,11,18s0.2,1,0.6,1.4C12,19.8,12.5,20,13,20v-4C12.5,16,12,16.2,11.6,16.6z M11,8v3
	c0,1.1,0.9,2,2,2V6C11.9,6,11,6.9,11,8z M11.6,16.6C11.2,17,11,17.5,11,18s0.2,1,0.6,1.4C12,19.8,12.5,20,13,20v-4
	C12.5,16,12,16.2,11.6,16.6z M11,8v3c0,1.1,0.9,2,2,2V6C11.9,6,11,6.9,11,8z M11,8v3c0,1.1,0.9,2,2,2V6C11.9,6,11,6.9,11,8z
	 M11.6,16.6C11.2,17,11,17.5,11,18s0.2,1,0.6,1.4C12,19.8,12.5,20,13,20v-4C12.5,16,12,16.2,11.6,16.6z M11.6,16.6
	C11.2,17,11,17.5,11,18s0.2,1,0.6,1.4C12,19.8,12.5,20,13,20v-4C12.5,16,12,16.2,11.6,16.6z M11,8v3c0,1.1,0.9,2,2,2V6
	C11.9,6,11,6.9,11,8z M13,2V0C9.4,0,6.2,1.5,3.8,3.8S0,9.4,0,13c0,7.2,5.8,13,13,13v-2C6.9,24,2,19.1,2,13c0-3,1.2-5.8,3.2-7.8
	C7.2,3.2,10,2,13,2z M11.6,16.6C11.2,17,11,17.5,11,18s0.2,1,0.6,1.4C12,19.8,12.5,20,13,20v-4C12.5,16,12,16.2,11.6,16.6z M11,8v3
	c0,1.1,0.9,2,2,2V6C11.9,6,11,6.9,11,8z M11,8v3c0,1.1,0.9,2,2,2V6C11.9,6,11,6.9,11,8z M11.6,16.6C11.2,17,11,17.5,11,18
	s0.2,1,0.6,1.4C12,19.8,12.5,20,13,20v-4C12.5,16,12,16.2,11.6,16.6z M11.6,16.6C11.2,17,11,17.5,11,18s0.2,1,0.6,1.4
	C12,19.8,12.5,20,13,20v-4C12.5,16,12,16.2,11.6,16.6z M11,8v3c0,1.1,0.9,2,2,2V6C11.9,6,11,6.9,11,8z M11.6,16.6
	C11.2,17,11,17.5,11,18s0.2,1,0.6,1.4C12,19.8,12.5,20,13,20v-4C12.5,16,12,16.2,11.6,16.6z M11,8v3c0,1.1,0.9,2,2,2V6
	C11.9,6,11,6.9,11,8z M11,8v3c0,1.1,0.9,2,2,2V6C11.9,6,11,6.9,11,8z M11.6,16.6C11.2,17,11,17.5,11,18s0.2,1,0.6,1.4
	C12,19.8,12.5,20,13,20v-4C12.5,16,12,16.2,11.6,16.6z M13,16v4c0.5,0,1-0.2,1.4-0.6C14.8,19,15,18.5,15,18s-0.2-1-0.6-1.4
	C14,16.2,13.5,16,13,16z M13,6v7c1.1,0,2-0.9,2-2V8C15,6.9,14.1,6,13,6z M13,16v4c0.5,0,1-0.2,1.4-0.6C14.8,19,15,18.5,15,18
	s-0.2-1-0.6-1.4C14,16.2,13.5,16,13,16z M13,6v7c1.1,0,2-0.9,2-2V8C15,6.9,14.1,6,13,6z M13,6v7c1.1,0,2-0.9,2-2V8
	C15,6.9,14.1,6,13,6z M13,16v4c0.5,0,1-0.2,1.4-0.6C14.8,19,15,18.5,15,18s-0.2-1-0.6-1.4C14,16.2,13.5,16,13,16z M13,16v4
	c0.5,0,1-0.2,1.4-0.6C14.8,19,15,18.5,15,18s-0.2-1-0.6-1.4C14,16.2,13.5,16,13,16z M13,6v7c1.1,0,2-0.9,2-2V8C15,6.9,14.1,6,13,6z
	 M20.8,5.2c2,2,3.2,4.7,3.2,7.8c0,6.1-4.9,11-11,11v2c7.2,0,13-5.8,13-13c0-3.6-1.5-6.8-3.8-9.2S16.6,0,13,0v2
	C16,2,18.8,3.2,20.8,5.2z M13,16v4c0.5,0,1-0.2,1.4-0.6C14.8,19,15,18.5,15,18s-0.2-1-0.6-1.4C14,16.2,13.5,16,13,16z M13,6v7
	c1.1,0,2-0.9,2-2V8C15,6.9,14.1,6,13,6z M13,6v7c1.1,0,2-0.9,2-2V8C15,6.9,14.1,6,13,6z M13,16v4c0.5,0,1-0.2,1.4-0.6
	C14.8,19,15,18.5,15,18s-0.2-1-0.6-1.4C14,16.2,13.5,16,13,16z M13,16v4c0.5,0,1-0.2,1.4-0.6C14.8,19,15,18.5,15,18s-0.2-1-0.6-1.4
	C14,16.2,13.5,16,13,16z M13,6v7c1.1,0,2-0.9,2-2V8C15,6.9,14.1,6,13,6z M13,16v4c0.5,0,1-0.2,1.4-0.6C14.8,19,15,18.5,15,18
	s-0.2-1-0.6-1.4C14,16.2,13.5,16,13,16z M13,6v7c1.1,0,2-0.9,2-2V8C15,6.9,14.1,6,13,6z M13,6v7c1.1,0,2-0.9,2-2V8
	C15,6.9,14.1,6,13,6z M13,16v4c0.5,0,1-0.2,1.4-0.6C14.8,19,15,18.5,15,18s-0.2-1-0.6-1.4C14,16.2,13.5,16,13,16z"/>
</svg>
