<?xml version="1.0" encoding="utf-8"?>
<!-- Generator: Adobe Illustrator 24.1.2, SVG Export Plug-In . SVG Version: 6.00 Build 0)  -->
<svg version="1.1" id="Слой_1" xmlns="http://www.w3.org/2000/svg" xmlns:xlink="http://www.w3.org/1999/xlink" x="0px" y="0px"
	 width="18px" height="14px" viewBox="0 0 18 14" style="enable-background:new 0 0 18 14;" xml:space="preserve">
<style type="text/css">
	.st0{fill:#FFFFFFdd;}
</style>
<path class="st0" d="M3,0C2.7,0,2.4,0.05,2.13,0.13L8.99,7L9,6.99V0H3z M0.13,2.13C0.05,2.4,0,2.7,0,3v8l4.5-4.5L0.13,2.13z M8,10
	L6.5,8.5l-5.06,5.06C1.89,13.84,2.43,14,3,14h6v-4H8z M9,0v6.99L9.01,7l6.86-6.87C15.6,0.05,15.3,0,15,0L9,0z M13.5,6.5L18,11V3
	c0-0.3-0.05-0.6-0.13-0.87L13.5,6.5z M9,10v4h6c0.57,0,1.11-0.16,1.56-0.44L11.5,8.5L10,10H9z"/>
</svg>
