<?xml version="1.0" encoding="utf-8"?>
<!-- Generator: Adobe Illustrator 24.1.2, SVG Export Plug-In . SVG Version: 6.00 Build 0)  -->
<svg version="1.1" id="Слой_1" xmlns="http://www.w3.org/2000/svg" xmlns:xlink="http://www.w3.org/1999/xlink" x="0px" y="0px"
	 width="136px" height="54px" viewBox="0 0 136 54" style="enable-background:new 0 0 136 54;" xml:space="preserve">
<style type="text/css">
	.st0{fill:url(#SVGID_1_);}
</style>
<linearGradient id="SVGID_1_" gradientUnits="userSpaceOnUse" x1="121.1541" y1="-8.219" x2="14.8459" y2="66.219" gradientTransform="matrix(1 0 0 -1 0 56)">
	<stop  offset="0" style="stop-color:#0B0B0D"/>
	<stop  offset="1" style="stop-color:#454546"/>
</linearGradient>
<path class="st0" d="M120,0H16C7.2,0,0,7.2,0,16v22c0,8.8,7.2,16,16,16h104c8.8,0,16-7.2,16-16V16C136,7.2,128.8,0,120,0z M66,51H16
	C8.8,51,3,45.2,3,38V16C3,8.8,8.8,3,16,3h50V51z M133,38c0,7.2-5.8,13-13,13H70V3h50c7.2,0,13,5.8,13,13V38z"/>
</svg>
